<svg width="285" height="23" viewBox="0 0 285 23" fill="none" xmlns="http://www.w3.org/2000/svg">
<path fill-rule="evenodd" clip-rule="evenodd" d="M151.663 19.2992L150.29 22.463L148.704 18.2926C148.688 18.2566 148.672 18.2244 148.658 18.1957C148.652 18.1829 148.646 18.1709 148.64 18.1595C148.614 18.1225 148.585 18.0955 148.551 18.0754C148.453 18.0254 148.29 17.9994 148.064 17.9994V17.5251H150.04L150.201 17.9994C149.814 17.9994 149.619 18.0774 149.619 18.2365C149.619 18.2706 149.626 18.3116 149.642 18.3616L150.402 20.4448L151.728 17.343L153.048 20.4448L154.374 17.357L154.848 17.5381L153.005 22.463L151.663 19.2992ZM100.21 21.6249C100.657 21.1737 100.881 20.5993 100.881 19.9069C100.881 19.2135 100.654 18.6362 100.202 18.1799C99.7259 17.7016 99.089 17.4625 98.2926 17.4625C97.5111 17.4625 96.8795 17.7046 96.3979 18.1879C95.9406 18.6382 95.7124 19.2135 95.7124 19.9069C95.7124 20.5943 95.9363 21.1687 96.3831 21.6249C96.8647 22.1132 97.4963 22.3574 98.2778 22.3574C99.089 22.3574 99.7332 22.1132 100.21 21.6249ZM94.2233 18.1749C94.4884 18.1749 94.6458 18.335 94.6954 18.6562L95.1887 18.5571L95.0419 17.5245H91.8787L91.7751 18.0068C92.1152 18.0068 92.2842 18.1329 92.2842 18.384V22.2883H93.1915V20.4582C93.1915 20.3452 93.2548 20.2761 93.3826 20.2491L94.5845 19.969V19.6348H93.1619V18.1749H94.2233ZM99.9371 19.9069C99.9371 19.4036 99.7892 18.9774 99.4945 18.6282C99.1798 18.26 98.7795 18.0768 98.2926 18.0768C97.8057 18.0768 97.4076 18.261 97.0981 18.6352C96.8034 18.9894 96.6566 19.4126 96.6566 19.9069C96.6566 20.4042 96.8034 20.8285 97.0981 21.1777C97.4076 21.5509 97.8057 21.736 98.2926 21.736C98.7848 21.736 99.1851 21.5509 99.4945 21.1777C99.7892 20.8195 99.9371 20.3952 99.9371 19.9069ZM105.209 21.8624C105.548 21.5322 105.717 21.0709 105.717 20.4796V17.5248H105.091L104.876 20.4025C104.812 21.273 104.437 21.7093 103.752 21.7093C103.441 21.7093 103.182 21.5832 102.975 21.3321C102.842 21.167 102.776 20.8728 102.776 20.4445V18.3633C102.776 18.1212 102.945 17.9991 103.285 17.9991L103.174 17.5248H101.455V17.9991C101.677 17.9991 101.82 18.0621 101.883 18.1882C101.923 18.2573 101.942 18.4143 101.942 18.6565V20.5286C101.942 21.1269 102.131 21.5942 102.511 21.9234C102.844 22.2126 103.263 22.3577 103.763 22.3577C104.378 22.3577 104.859 22.1926 105.209 21.8624ZM111.365 18.0064C111.045 18.0064 110.885 18.1545 110.885 18.4527V22.379L107.679 18.8589V22.2869H106.926V18.3836C106.926 18.1325 106.759 18.0064 106.425 18.0064L106.527 17.5251H107.545L110.133 20.3888V18.5938C110.133 18.3986 110.109 18.2606 110.059 18.1815C109.996 18.0724 109.866 18.0164 109.669 18.0064L109.698 17.5251H111.276L111.365 18.0064ZM116.097 21.5676C116.549 21.1163 116.776 20.561 116.776 19.8996C116.776 19.2522 116.569 18.7099 116.156 18.2727C115.684 17.7734 115.034 17.5232 114.202 17.5232H111.991L111.887 18.0065C112.222 18.0065 112.389 18.1326 112.389 18.3837V22.288H114.195C114.986 22.288 115.621 22.0489 116.097 21.5676ZM115.832 19.9206C115.832 19.4223 115.679 19.0011 115.375 18.6549C115.07 18.3117 114.632 18.1396 114.063 18.1396H113.296V21.6586H114.093C114.619 21.6586 115.038 21.4966 115.353 21.1704C115.673 20.8402 115.832 20.4229 115.832 19.9206ZM117.358 18.0064C117.692 18.0064 117.859 18.1325 117.859 18.3836V22.2869H120.926V21.6385H118.774V20.4008C118.774 20.3248 118.786 20.2777 118.811 20.2537C118.841 20.2267 118.892 20.2057 118.965 20.1917L120.278 19.9135V19.5773H118.737V18.1745H119.917C120.182 18.1745 120.339 18.3346 120.389 18.6548L120.882 18.5587L120.735 17.5251H117.461L117.358 18.0064ZM126.302 19.8996C126.302 20.561 126.075 21.1163 125.623 21.5676C125.146 22.0489 124.512 22.288 123.721 22.288H121.915V18.3837C121.915 18.1326 121.748 18.0065 121.413 18.0065L121.516 17.5232H123.728C124.559 17.5232 125.21 17.7734 125.682 18.2727C126.095 18.7099 126.302 19.2522 126.302 19.8996ZM124.9 18.6549C125.205 19.0011 125.358 19.4223 125.358 19.9206C125.358 20.4229 125.198 20.8402 124.878 21.1704C124.563 21.4966 124.144 21.6586 123.618 21.6586H122.822V18.1396H123.589C124.158 18.1396 124.595 18.3117 124.9 18.6549ZM128.822 22.2882V21.8119C129.059 21.8119 129.208 21.7649 129.272 21.6669C129.331 21.5828 129.361 21.4127 129.361 21.1566V17.5234H130.252V21.4497C130.252 21.6228 130.331 21.7329 130.489 21.7849C130.513 21.7949 130.552 21.8019 130.606 21.8069C130.661 21.8099 130.73 21.8119 130.813 21.8119L130.702 22.2882H128.822ZM135.694 18.4527C135.694 18.1545 135.853 18.0064 136.173 18.0064L136.084 17.5251H134.506L134.478 18.0064C134.674 18.0164 134.804 18.0724 134.868 18.1815C134.917 18.2606 134.942 18.3986 134.942 18.5938V20.3888L132.354 17.5251H131.336L131.233 18.0064C131.567 18.0064 131.734 18.1325 131.734 18.3836V22.2869H132.487V18.8589L135.694 22.379V18.4527ZM143.7 18.0064C143.379 18.0064 143.222 18.1545 143.222 18.4527V22.379L140.014 18.8589V22.2869H139.261V18.3836C139.261 18.1325 139.095 18.0064 138.761 18.0064L138.863 17.5251H139.881L142.469 20.3888V18.5938C142.469 18.3986 142.445 18.2606 142.396 18.1815C142.33 18.0724 142.201 18.0164 142.005 18.0064L142.035 17.5251H143.612L143.7 18.0064ZM144.223 18.0064C144.559 18.0064 144.726 18.1325 144.726 18.3836V22.2869H147.791V21.6385H145.638V20.4008C145.638 20.3248 145.652 20.2777 145.675 20.2537C145.706 20.2267 145.757 20.2057 145.831 20.1917L147.142 19.9135V19.5773H145.601V18.1745H146.781C147.046 18.1745 147.205 18.3346 147.254 18.6548L147.746 18.5587L147.6 17.5251H144.326L144.223 18.0064ZM158.881 22.2882H159.788V20.3671L161.337 17.5314L160.938 17.3853L159.442 19.6197L158.705 18.2508C158.69 18.2138 158.68 18.1848 158.68 18.1678C158.68 18.0557 158.84 17.9997 159.152 17.9997L158.975 17.5234H157.038V17.9997C157.213 17.9997 157.333 18.0097 157.39 18.0277C157.515 18.0587 157.606 18.1308 157.663 18.2368L158.881 20.3821V22.2882ZM166.806 19.9069C166.806 20.5993 166.583 21.1737 166.135 21.6249C165.658 22.1132 165.013 22.3574 164.204 22.3574C163.42 22.3574 162.791 22.1132 162.309 21.6249C161.861 21.1687 161.638 20.5943 161.638 19.9069C161.638 19.2135 161.867 18.6382 162.322 18.1879C162.804 17.7046 163.435 17.4625 164.217 17.4625C165.013 17.4625 165.651 17.7016 166.127 18.1799C166.58 18.6362 166.806 19.2135 166.806 19.9069ZM165.42 18.6282C165.713 18.9774 165.862 19.4036 165.862 19.9069C165.862 20.3952 165.713 20.8195 165.42 21.1777C165.109 21.5509 164.708 21.736 164.217 21.736C163.73 21.736 163.332 21.5509 163.023 21.1777C162.728 20.8285 162.582 20.4042 162.582 19.9069C162.582 19.4126 162.728 18.9894 163.023 18.6352C163.332 18.261 163.73 18.0768 164.217 18.0768C164.704 18.0768 165.104 18.26 165.42 18.6282ZM171.525 22.0305C171.525 22.1135 171.488 22.1886 171.413 22.2516C171.34 22.3236 171.26 22.3577 171.171 22.3577C171.071 22.3577 170.989 22.3186 170.921 22.2396L169.31 20.2064H168.797V21.4501C168.797 21.6923 168.966 21.8133 169.304 21.8133L169.195 22.2886H167.883V18.3833C167.883 18.1322 167.714 18.0061 167.382 18.0061L167.485 17.5248H169.383C169.898 17.5248 170.305 17.6389 170.604 17.867C170.908 18.1002 171.059 18.4153 171.059 18.8166C171.059 19.3619 170.794 19.7491 170.265 19.9833L171.488 21.9044C171.511 21.9414 171.525 21.9834 171.525 22.0305ZM169.195 18.1322C169.828 18.1322 170.147 18.3583 170.153 18.8096C170.158 19.3179 169.824 19.571 169.158 19.571H168.76V18.1322H169.195ZM176.316 22.0645C176.316 22.1335 176.288 22.2026 176.229 22.2676C176.163 22.3276 176.092 22.3577 176.015 22.3577C175.931 22.3577 175.842 22.3186 175.749 22.2396L173.471 20.1654C173.411 20.1093 173.361 20.0953 173.322 20.1233C173.313 20.1314 173.302 20.1394 173.295 20.1444C173.295 20.1484 173.286 20.1584 173.271 20.1704C173.253 20.1954 173.243 20.2324 173.243 20.2844V22.2886H172.334V18.5935C172.334 18.3883 172.309 18.2492 172.261 18.1732C172.188 18.0581 172.051 18.0001 171.849 18.0001L171.87 17.5248H173.649L173.737 18.0051C173.406 18.0011 173.243 18.1512 173.243 18.4544V19.6261L175.263 17.5248H176.229V17.6849C176.229 17.769 176.176 17.825 176.074 17.853C175.838 17.9211 175.642 18.0321 175.492 18.1812L174.127 19.571L176.25 21.9044C176.293 21.9514 176.316 22.0024 176.316 22.0645ZM180.238 21.6671C180.163 21.7691 179.982 21.8201 179.692 21.8201V22.2884H181.205V17.4556L179.472 17.9018V18.5302L179.861 18.4242C179.95 18.4021 180.02 18.3901 180.067 18.3901C180.236 18.3901 180.32 18.4862 180.32 18.6753V21.1758C180.32 21.4279 180.291 21.591 180.238 21.6671ZM186.002 19.3134C186.018 20.0768 185.882 20.7302 185.598 21.2745C185.266 21.9089 184.793 22.2561 184.174 22.3151C183.796 22.3542 183.492 22.2601 183.267 22.037V21.7228C183.315 21.7308 183.501 21.7348 183.827 21.7348C184.16 21.7348 184.433 21.5967 184.644 21.3155C184.837 21.0644 184.959 20.7102 185.014 20.2489C184.988 20.2679 184.857 20.2929 184.623 20.325C184.518 20.3416 184.434 20.3536 184.368 20.3631L184.341 20.367C184.273 20.377 184.229 20.382 184.208 20.382C184.184 20.386 184.155 20.389 184.126 20.389H184.038C183.66 20.389 183.333 20.2609 183.062 20.0048C182.772 19.7296 182.627 19.3754 182.627 18.9412C182.627 18.5219 182.786 18.1697 183.106 17.8815C183.428 17.5974 183.835 17.4553 184.327 17.4553C185.42 17.4553 185.98 18.0736 186.002 19.3134ZM184.305 18.0766C184.833 18.0766 185.097 18.5099 185.097 19.3754V19.5365C185.093 19.5776 185.089 19.6183 185.086 19.6592L185.081 19.7186C185.081 19.7276 185.034 19.7386 184.942 19.7526C184.853 19.7576 184.809 19.7646 184.809 19.7726H184.357C184.1 19.7726 183.896 19.6936 183.749 19.5365C183.606 19.3734 183.535 19.1713 183.535 18.9291C183.535 18.673 183.604 18.4659 183.742 18.3078C183.886 18.1517 184.071 18.0766 184.305 18.0766ZM189.779 20.9397C189.779 21.377 189.602 21.7292 189.247 21.9953C188.915 22.2415 188.504 22.3656 188.016 22.3656C187.873 22.3656 187.751 22.3626 187.647 22.3576C187.577 22.3516 187.514 22.3448 187.46 22.3389C187.441 22.3368 187.422 22.3348 187.405 22.333C187.397 22.3321 187.389 22.3313 187.381 22.3305L187.235 21.7222C187.524 21.7952 187.782 21.8272 188.008 21.8132C188.285 21.7902 188.49 21.7022 188.627 21.5461C188.771 21.385 188.842 21.1739 188.842 20.9187C188.842 20.4194 188.537 20.1062 187.927 19.9762L187.706 19.9271L187.582 19.5299C187.637 19.5249 187.691 19.5219 187.751 19.5219C187.815 19.5219 187.881 19.5199 187.951 19.5149C188.455 19.4919 188.709 19.2517 188.709 18.7945C188.709 18.5853 188.641 18.4172 188.504 18.2862C188.359 18.1511 188.172 18.0841 187.936 18.0841C187.699 18.0841 187.533 18.1391 187.433 18.2501C187.384 18.3072 187.34 18.4172 187.301 18.5793C187.266 18.7094 187.216 18.7845 187.155 18.8025C187.15 18.8075 187.113 18.8145 187.042 18.8245C186.944 18.8245 186.868 18.7965 186.814 18.7474V17.9019C187.022 17.6138 187.428 17.4647 188.039 17.4607C188.521 17.4577 188.911 17.5597 189.211 17.7689C189.505 17.979 189.654 18.2792 189.654 18.6684C189.654 18.9456 189.554 19.1827 189.359 19.3808C189.19 19.5549 188.99 19.676 188.753 19.746C189.062 19.8251 189.31 19.9662 189.492 20.1703C189.681 20.3804 189.779 20.6375 189.779 20.9397ZM192.02 21.6671C191.945 21.7691 191.764 21.8201 191.474 21.8201V22.2884H192.987V17.4556L191.253 17.9018V18.5302L191.643 18.4242C191.732 18.4021 191.802 18.3901 191.849 18.3901C192.018 18.3901 192.102 18.4862 192.102 18.6753V21.1758C192.102 21.4279 192.073 21.591 192.02 21.6671Z" fill="white"/>
<g filter="url(#filter0_d_3_2549)">
<path fill-rule="evenodd" clip-rule="evenodd" d="M79.04 10.4657C78.732 10.9529 78.2879 11.3422 77.7077 11.6375C77.1898 11.8874 76.6961 12.0123 76.2267 12.0123C75.1287 12.0123 74.2584 11.5988 73.6181 10.7718C73.0253 10.0019 72.7289 9.03926 72.7289 7.88296C72.7289 6.68212 73.0316 5.7195 73.6361 4.99512C74.2901 4.21264 75.1719 3.82236 76.2826 3.82236C77.1466 3.82236 77.9546 4.09352 78.7067 4.63778V0.356379L80.7984 0V9.6329L81.8722 10.9403L80.2984 12.0123L79.04 10.4657ZM48.8382 11.4177C48.8382 11.5649 48.7697 11.7005 48.6346 11.8235C48.4732 11.9484 48.3129 12.0123 48.1526 12.0123C47.8446 12.0123 47.6283 11.8874 47.5049 11.6375L45.9321 8.64704H40.5651L39.8436 10.2614C39.8067 10.3408 39.7877 10.4202 39.7877 10.4996C39.7877 10.794 40.1084 10.9403 40.7508 10.9403L40.4175 11.8419H36.3637V10.9403C37.0546 10.9403 37.4745 10.7824 37.6221 10.4657L41.5092 1.8003C41.5461 1.70927 41.5641 1.63663 41.5641 1.57756C41.5641 1.26185 41.2866 1.10303 40.7318 1.10303L41.12 0.2024H43.8773L48.7823 11.1775C48.8192 11.2579 48.8382 11.3383 48.8382 11.4177ZM10.0844 1.71459C11.4905 1.71459 12.194 2.32567 12.194 3.55072C12.194 4.10563 12.0021 4.55304 11.6202 4.89296C11.2257 5.22125 10.6951 5.38588 10.0285 5.38588H8.10443V1.71459H10.0844ZM14.4259 4.13533C14.4555 3.95412 14.4704 3.76506 14.4704 3.56815C14.4704 2.5484 14.1065 1.73783 13.3807 1.13741C12.6413 0.547643 11.6202 0.254211 10.3154 0.254211H4.90195L4.64246 1.42697C5.48211 1.42697 5.90193 1.73202 5.90193 2.34407V11.8424H9.19619L9.47361 10.6861C8.62236 10.6861 8.1962 10.3907 8.1962 9.80286V6.89759H9.8755C11.3027 6.89759 12.4282 6.60222 13.252 6.01439C13.8403 5.57951 14.2156 5.03185 14.3778 4.37141V5.14591H15.8577C16.7089 5.14591 17.2585 5.20982 17.5043 5.33475C17.826 5.50325 17.9864 5.88384 17.9864 6.47168V6.64212C17.9737 6.64212 17.7269 6.70507 17.2459 6.82999C16.7891 6.9433 16.5307 7.01109 16.4684 7.03433C14.4706 7.59989 13.4706 8.51795 13.4706 9.78465C13.4706 10.4209 13.7048 10.9516 14.1742 11.3835C14.6425 11.7912 15.1974 11.9956 15.8398 11.9956C16.5549 11.9956 17.326 11.8474 18.153 11.554C19.0243 11.2344 19.6667 11.0668 20.077 11.0436V6.37096C20.077 5.47614 19.7659 4.80793 19.1435 4.36633C18.5834 3.9683 17.8091 3.78818 16.8208 3.82207L16.3208 3.855C16.1478 3.86759 15.9811 3.88502 15.8208 3.90729L14.9136 4.04384C14.6998 4.08326 14.5375 4.11397 14.4259 4.13533ZM17.9864 7.4585C17.3197 7.60473 16.7459 7.8817 16.2649 8.28941C15.7955 8.68743 15.5623 9.10579 15.5623 9.54835C15.5623 9.9793 15.6604 10.3057 15.8577 10.5342C16.0549 10.7831 16.3324 10.908 16.69 10.908C17.1594 10.908 17.5908 10.7318 17.9864 10.3812V7.4585ZM26.2403 5.11279C27.042 5.11279 27.5294 5.66866 27.7023 6.77847L28.4239 11.8424H29.7382V6.67679C29.7382 5.75872 29.4787 5.04597 28.9608 4.53658C28.4798 4.05914 27.8321 3.82188 27.0178 3.82188C25.9935 3.82188 25.1233 4.2354 24.4081 5.0634H24.3712V4.04365L23.964 3.73569L21.3913 4.17729L21.2436 5.11279C21.9345 5.02369 22.2794 5.32293 22.2794 6.01439V11.8424H24.3712V7.42441L24.1866 6.28555C24.8764 5.505 25.5621 5.11279 26.2403 5.11279ZM45.1727 7.20313H41.2128L43.0081 2.97306L45.1727 7.20313ZM55.2224 6.04838C54.8522 5.65133 54.4323 5.45377 53.964 5.45377C53.1613 5.45377 52.483 5.75882 51.9282 6.37086L52.0758 7.61045V10.107C52.0758 10.4373 52.1929 10.6523 52.4281 10.753C52.6001 10.8227 52.9334 10.8566 53.4271 10.8566L53.2045 11.8405H49.9851V6.01448C49.9851 5.34434 49.6392 5.04606 48.9482 5.11288L49.0959 4.17739L51.6687 3.73676L52.0758 4.06021V5.18067C52.0885 5.18067 52.1011 5.17583 52.1127 5.16421C52.4208 4.77781 52.7973 4.4621 53.2425 4.21225C53.7108 3.95271 54.1676 3.82198 54.6117 3.82198C55.2403 3.82198 55.7646 3.99242 56.1844 4.33233L55.407 5.99705L55.2224 6.04838ZM62.6619 7.04963C62.8475 7.04963 63.0384 7.02833 63.2357 6.98281V4.90845C62.915 4.52495 62.5627 4.24702 62.1809 4.07754C61.7737 3.9071 61.2368 3.82091 60.5712 3.82091C59.2874 3.82091 58.2569 4.21312 57.4794 4.99464C56.7031 5.77616 56.3138 6.78428 56.3138 8.01805C56.3138 9.19662 56.721 10.1583 57.5353 10.9078C58.3623 11.6429 59.3919 12.0109 60.626 12.0109C61.0954 12.0109 61.7368 11.9101 62.5511 11.7058V10.7713H61.107C60.2811 10.7713 59.6271 10.5001 59.1461 9.9549C58.6893 9.4581 58.4615 8.77827 58.4615 7.91734C58.4615 7.10096 58.6767 6.43371 59.1081 5.9127C59.5406 5.41397 60.0954 5.17573 60.7748 5.19801C61.3169 5.20963 61.6503 5.38007 61.7737 5.70837C61.7979 5.85557 61.8296 5.99599 61.8665 6.13254C61.8908 6.27877 61.9161 6.43371 61.9403 6.59157C62.0015 6.89759 62.2431 7.04963 62.6619 7.04963ZM70.9523 11.0436C70.542 11.0668 69.8996 11.2344 69.0283 11.554C68.2013 11.8474 67.4302 11.9956 66.7151 11.9956C66.0727 11.9956 65.5178 11.7912 65.0495 11.3835C64.5801 10.9516 64.3459 10.4209 64.3459 9.78465C64.3459 8.51795 65.3459 7.59989 67.3438 7.03433C67.406 7.01109 67.6644 6.9433 68.1212 6.82999C68.6022 6.70507 68.849 6.64212 68.8617 6.64212V6.47168C68.8617 5.88384 68.7013 5.50325 68.3796 5.33475C68.1338 5.20982 67.5843 5.14591 66.733 5.14591H65.2531V4.14456C65.3638 4.12325 65.5421 4.08936 65.7889 4.04384L66.6961 3.90729C66.8564 3.88502 67.0231 3.86759 67.1961 3.855L67.6961 3.82207C68.6844 3.78818 69.4587 3.9683 70.0188 4.36633C70.6412 4.80793 70.9523 5.47614 70.9523 6.37096V11.0436ZM67.1402 8.28941C67.6212 7.8817 68.195 7.60473 68.8617 7.4585V10.3812C68.4661 10.7318 68.0347 10.908 67.5653 10.908C67.2077 10.908 66.9303 10.7831 66.733 10.5342C66.5357 10.3057 66.4376 9.9793 66.4376 9.54836C66.4376 9.10579 66.6708 8.68743 67.1402 8.28941ZM76.8101 5.09584C77.5653 5.09584 78.2594 5.36797 78.8923 5.91222L78.7067 7.26995V9.53025C78.2605 10.3796 77.6592 10.8057 76.9029 10.8057C76.1096 10.8057 75.5516 10.4134 75.2299 9.6329C74.9567 9.28136 74.8206 8.63639 74.8206 7.69605C74.8206 6.88064 74.9936 6.24633 75.3407 5.7931C75.7004 5.32729 76.1898 5.09584 76.8101 5.09584ZM85.4253 1.69803C85.4253 1.93626 85.3325 2.15125 85.1479 2.34397C84.9507 2.52507 84.7091 2.61513 84.4264 2.61513C84.1416 2.61513 83.9011 2.52507 83.7038 2.34397C83.5066 2.16191 83.4074 1.94789 83.4074 1.69803C83.4074 1.43656 83.5066 1.21673 83.7038 1.03466C83.9011 0.854536 84.1416 0.763504 84.4264 0.763504C84.6975 0.763504 84.9317 0.854536 85.1289 1.03466C85.3262 1.21673 85.4253 1.43656 85.4253 1.69803ZM83.4074 8.80044C83.4074 9.90929 83.7165 10.7586 84.3336 11.3493L85.0361 12.0108L86.6099 10.9416L85.4992 9.63135V4.04355L85.092 3.73559L82.5203 4.17913L82.3716 5.11172C83.0625 5.02359 83.4074 5.32284 83.4074 6.01429V8.80044ZM94.0119 11.0436C93.6016 11.0668 92.9592 11.2344 92.0879 11.554C91.2609 11.8474 90.4898 11.9956 89.7746 11.9956C89.1322 11.9956 88.5774 11.7912 88.1091 11.3835C87.6397 10.9516 87.4055 10.4209 87.4055 9.78465C87.4055 8.51795 88.4055 7.59989 90.4033 7.03433C90.4656 7.01109 90.724 6.9433 91.1807 6.82999C91.6617 6.70507 91.9086 6.64212 91.9212 6.64212V6.47168C91.9212 5.88384 91.7609 5.50325 91.4392 5.33475C91.1934 5.20982 90.6438 5.14591 89.7926 5.14591H88.3126V4.14456C88.4234 4.12325 88.6017 4.08936 88.8485 4.04384L89.7557 3.90729C89.916 3.88502 90.0827 3.86759 90.2556 3.855L90.7556 3.82207C91.744 3.78818 92.5183 3.9683 93.0784 4.36633C93.7007 4.80793 94.0119 5.47614 94.0119 6.37096V11.0436ZM90.1997 8.28941C90.6807 7.8817 91.2546 7.60473 91.9212 7.4585V10.3812C91.5257 10.7318 91.0942 10.908 90.6248 10.908C90.2673 10.908 89.9898 10.7831 89.7926 10.5342C89.5953 10.3057 89.4972 9.9793 89.4972 9.54836C89.4972 9.10579 89.7303 8.68743 90.1997 8.28941ZM101.637 6.77847C101.464 5.66866 100.977 5.11279 100.175 5.11279C99.497 5.11279 98.8113 5.505 98.1215 6.28555L98.3061 7.42441V11.8424H96.2143V6.01439C96.2143 5.32293 95.8694 5.02369 95.1785 5.11279L95.3261 4.17729L97.8989 3.73569L98.3061 4.04365V5.0634H98.343C99.0582 4.2354 99.9284 3.82188 100.953 3.82188C101.767 3.82188 102.415 4.05914 102.896 4.53658C103.414 5.04597 103.673 5.75872 103.673 6.67679V11.8424H102.359L101.637 6.77847ZM116.794 1.83419C117.46 1.83419 117.856 2.2235 117.979 3.00695L119.218 2.76872L118.848 0.253727H110.908L110.65 1.42649C111.501 1.42649 111.927 1.73251 111.927 2.34261V11.8419H114.203V7.38906C114.203 7.11791 114.363 6.94746 114.685 6.88064L117.702 6.20081V5.3854H114.13V1.83419H116.794ZM120.922 8.71522C120.933 9.28175 121.162 9.75628 121.606 10.1427C122.038 10.5175 122.575 10.7034 123.217 10.7034H124.067V11.8248C123.5 11.9498 122.995 12.0108 122.55 12.0108C121.403 12.0108 120.459 11.6089 119.718 10.8041C118.978 10.0003 118.607 9.0164 118.607 7.84945C118.607 6.61471 119.009 5.61821 119.811 4.85896C120.552 4.16848 121.483 3.82081 122.605 3.82081C123.679 3.82081 124.556 4.11715 125.234 4.70595C126.109 5.45357 126.536 6.58663 126.511 8.10221H120.422L120.922 8.71522ZM124.438 6.60697C124.474 6.79 124.493 6.94301 124.493 7.06793H121.31L120.755 7.04953C120.928 5.73635 121.588 5.07783 122.735 5.07783C123.685 5.07783 124.253 5.58915 124.438 6.60697ZM133.783 10.4657C133.475 10.9529 133.031 11.3422 132.451 11.6375C131.933 11.8874 131.44 12.0123 130.97 12.0123C129.872 12.0123 129.002 11.5988 128.362 10.7718C127.769 10.0019 127.472 9.03926 127.472 7.88296C127.472 6.68212 127.775 5.7195 128.379 4.99512C129.033 4.21264 129.915 3.82236 131.026 3.82236C131.89 3.82236 132.698 4.09352 133.45 4.63778V0.356379L135.542 0V9.6329L136.616 10.9403L135.042 12.0123L133.783 10.4657ZM131.553 5.09584C132.309 5.09584 133.003 5.36797 133.636 5.91222L133.45 7.26995V9.53025C133.004 10.3796 132.403 10.8057 131.646 10.8057C130.853 10.8057 130.295 10.4134 129.973 9.6329C129.7 9.28136 129.564 8.63639 129.564 7.69605C129.564 6.88064 129.737 6.24633 130.084 5.7931C130.444 5.32729 130.933 5.09584 131.553 5.09584ZM139.891 8.71522C139.903 9.28175 140.132 9.75628 140.576 10.1427C141.008 10.5175 141.545 10.7034 142.185 10.7034H143.038V11.8248C142.471 11.9498 141.962 12.0108 141.519 12.0108C140.372 12.0108 139.428 11.6089 138.688 10.8041C137.948 10.0003 137.576 9.0164 137.576 7.84945C137.576 6.61471 137.979 5.61821 138.781 4.85896C139.522 4.16848 140.453 3.82081 141.576 3.82081C142.649 3.82081 143.526 4.11715 144.203 4.70595C145.078 5.45357 145.506 6.58663 145.479 8.10221H139.392L139.891 8.71522ZM143.407 6.60697C143.443 6.79 143.464 6.94301 143.464 7.06793H140.279L139.725 7.04953C139.897 5.73635 140.557 5.07783 141.704 5.07783C142.653 5.07783 143.222 5.58915 143.407 6.60697ZM152.475 6.04838C152.105 5.65133 151.687 5.45377 151.219 5.45377C150.416 5.45377 149.736 5.75882 149.182 6.37086L149.331 7.61045V10.107C149.331 10.4373 149.448 10.6523 149.682 10.753C149.855 10.8227 150.186 10.8566 150.682 10.8566L150.459 11.8405H147.238V6.01448C147.238 5.34434 146.892 5.04606 146.203 5.11288L146.348 4.17739L148.923 3.73676L149.331 4.06021V5.18067C149.341 5.18067 149.354 5.17583 149.367 5.16421C149.675 4.77781 150.051 4.4621 150.495 4.21225C150.963 3.95271 151.42 3.82198 151.865 3.82198C152.495 3.82198 153.019 3.99242 153.438 4.33233L152.662 5.99705L152.475 6.04838ZM158.415 11.554C159.287 11.2344 159.93 11.0668 160.339 11.0436V6.37096C160.339 5.47614 160.029 4.80793 159.408 4.36633C158.846 3.9683 158.073 3.78818 157.084 3.82207L156.584 3.855C156.411 3.86759 156.245 3.88502 156.083 3.90729L155.177 4.04384C154.949 4.086 154.779 4.11819 154.665 4.13964L154.662 4.1403L154.659 4.14076L154.658 4.14102L154.655 4.14157L154.639 4.14456V5.14591H156.12C156.971 5.14591 157.522 5.20982 157.769 5.33475C158.089 5.50325 158.25 5.88384 158.25 6.47168V6.64212C158.236 6.64212 157.99 6.70507 157.509 6.82999C157.051 6.9433 156.792 7.01109 156.733 7.03433C154.733 7.59989 153.734 8.51795 153.734 9.78465C153.734 10.4209 153.967 10.9516 154.438 11.3835C154.905 11.7912 155.46 11.9956 156.103 11.9956C156.818 11.9956 157.589 11.8474 158.415 11.554ZM158.25 7.4585C157.582 7.60473 157.008 7.8817 156.527 8.28941C156.06 8.68743 155.824 9.10579 155.824 9.54836C155.824 9.9793 155.924 10.3057 156.12 10.5342C156.318 10.7831 156.597 10.908 156.953 10.908C157.423 10.908 157.854 10.7318 158.25 10.3812V7.4585ZM165.04 12.012C165.658 12.012 166.362 11.9326 167.15 11.7738V10.754H165.43C164.713 10.754 164.358 10.3638 164.358 9.58225V5.28342H166.985V3.99252H164.358V1.37584L162.729 1.68089L162.264 9.49606C162.214 10.2563 162.457 10.8722 162.988 11.3496C163.492 11.7912 164.178 12.012 165.04 12.012ZM170.946 1.69803C170.946 1.93626 170.852 2.15125 170.667 2.34397C170.471 2.52507 170.229 2.61513 169.947 2.61513C169.661 2.61513 169.423 2.52507 169.223 2.34397C169.027 2.16191 168.929 1.94789 168.929 1.69803C168.929 1.43656 169.027 1.21673 169.223 1.03466C169.423 0.854536 169.661 0.763504 169.947 0.763504C170.218 0.763504 170.451 0.854536 170.651 1.03466C170.846 1.21673 170.946 1.43656 170.946 1.69803ZM168.929 8.80044C168.929 9.90929 169.237 10.7586 169.854 11.3493L170.558 12.0108L172.129 10.9416L171.019 9.63135V4.04355L170.614 3.73559L168.039 4.17913L167.891 5.11172C168.583 5.02359 168.929 5.32284 168.929 6.01429V8.80044ZM181.236 7.84771C181.236 10.6251 179.858 12.0119 177.108 12.0119C175.838 12.0119 174.85 11.6614 174.146 10.9573C173.43 10.2562 173.073 9.21803 173.073 7.84771C173.073 6.56939 173.443 5.57288 174.183 4.85916C174.9 4.16867 175.875 3.82198 177.108 3.82198C178.416 3.82198 179.428 4.16189 180.144 4.84173C180.87 5.5448 181.236 6.54712 181.236 7.84771ZM177.088 5.02766C178.409 5.02766 179.069 5.97478 179.069 7.86611C179.069 9.82426 178.409 10.8053 177.088 10.8053C175.843 10.8053 175.221 9.82038 175.221 7.84771C175.221 7.01099 175.368 6.34859 175.663 5.86147C176.01 5.30463 176.486 5.02766 177.088 5.02766ZM188.435 6.77847C188.262 5.66866 187.775 5.11279 186.972 5.11279C186.295 5.11279 185.608 5.505 184.918 6.28555L185.104 7.42441V11.8424H183.011V6.01439C183.011 5.32293 182.665 5.02369 181.976 5.11279L182.124 4.17729L184.697 3.73569L185.104 4.04365V5.0634H185.141C185.856 4.2354 186.726 3.82188 187.751 3.82188C188.564 3.82188 189.212 4.05914 189.693 4.53658C190.213 5.04597 190.471 5.75872 190.471 6.67679V11.8424H189.158L188.435 6.77847ZM201.408 12.0119C204.158 12.0119 205.535 10.6251 205.535 7.84771C205.535 6.54712 205.169 5.5448 204.444 4.84173C203.727 4.16189 202.716 3.82198 201.408 3.82198C200.175 3.82198 199.199 4.16867 198.483 4.85916C197.743 5.57288 197.372 6.56939 197.372 7.84771C197.372 9.21803 197.73 10.2562 198.447 10.9573C199.15 11.6614 200.138 12.0119 201.408 12.0119ZM203.37 7.86611C203.37 5.97478 202.709 5.02766 201.388 5.02766C200.785 5.02766 200.31 5.30463 199.964 5.86147C199.667 6.34859 199.521 7.01099 199.521 7.84771C199.521 9.82038 200.142 10.8053 201.388 10.8053C202.709 10.8053 203.37 9.82426 203.37 7.86611ZM211.29 1.47636C211.352 1.47636 211.413 1.48217 211.476 1.49476L212.272 1.47636V0.117663L211.197 0.0837685C211.001 0.0392211 210.785 0.0169474 210.551 0.0169474C209.81 0.0169474 209.168 0.254211 208.626 0.729706C207.936 1.34175 207.588 2.19687 207.588 3.29409V4.31481H206.331V5.60571H207.588V13.4054C207.588 13.5632 207.657 13.7037 207.793 13.8286C207.917 13.9429 208.064 14 208.237 14C208.632 14 208.848 13.8015 208.885 13.4054L209.589 6.08024C209.612 5.82167 209.753 5.66382 210.013 5.60571L211.31 5.31616V4.31481H209.81V3.22727C209.81 2.63944 209.889 2.21914 210.05 1.97026C210.235 1.67586 210.587 1.51607 211.104 1.49476C211.168 1.49476 211.229 1.48895 211.29 1.47636ZM229.297 11.4177C229.297 11.5649 229.229 11.7005 229.094 11.8235C228.934 11.9484 228.772 12.0123 228.613 12.0123C228.304 12.0123 228.087 11.8874 227.966 11.6375L226.393 8.64704H221.026L220.303 10.2614C220.267 10.3408 220.247 10.4202 220.247 10.4996C220.247 10.794 220.567 10.9403 221.211 10.9403L220.877 11.8419H216.823V10.9403C217.516 10.9403 217.934 10.7824 218.083 10.4657L221.968 1.8003C222.005 1.70927 222.024 1.63663 222.024 1.57756C222.024 1.26185 221.746 1.10303 221.192 1.10303L221.58 0.2024H224.337L229.243 11.1775C229.279 11.2579 229.297 11.3383 229.297 11.4177ZM225.634 7.20313H221.672L223.467 2.97306L225.634 7.20313ZM241.031 6.71039C241.031 6.24652 240.888 5.87271 240.606 5.58896C240.308 5.30618 239.945 5.16382 239.514 5.16382C238.858 5.16382 238.225 5.48728 237.608 6.13225L237.809 7.37376V11.1283H236.496L235.776 6.76172C235.676 6.14968 235.527 5.73616 235.331 5.5202C235.132 5.28197 234.83 5.16382 234.423 5.16382C233.66 5.16382 232.967 5.5202 232.35 6.2349L232.535 7.42412V11.8421H230.445V6.0141C230.445 5.34589 230.099 5.04567 229.408 5.11346L229.555 4.17894L232.13 3.73734L232.535 4.06079V5.06311C233.4 4.23414 234.24 3.82256 235.053 3.82256C236.151 3.82256 236.965 4.28062 237.495 5.19772C238.334 4.28062 239.285 3.82256 240.347 3.82256C241.173 3.82256 241.84 4.07047 242.344 4.57018C242.862 5.07763 243.121 5.75359 243.121 6.59128V11.8421H241.031V6.71039ZM247.898 10.1427C247.454 9.75628 247.225 9.28175 247.212 8.71522L246.713 8.10221H252.801C252.827 6.58663 252.4 5.45357 251.524 4.70595C250.847 4.11715 249.971 3.82081 248.897 3.82081C247.774 3.82081 246.843 4.16848 246.104 4.85896C245.301 5.61821 244.9 6.61471 244.9 7.84945C244.9 9.0164 245.269 10.0003 246.011 10.8041C246.75 11.6089 247.693 12.0108 248.841 12.0108C249.285 12.0108 249.792 11.9498 250.36 11.8248V10.7034H249.506C248.866 10.7034 248.329 10.5175 247.898 10.1427ZM250.785 7.06793C250.785 6.94301 250.765 6.79 250.728 6.60697C250.543 5.58915 249.975 5.07783 249.027 5.07783C247.878 5.07783 247.217 5.73635 247.046 7.04953L247.6 7.06793H250.785ZM258.54 5.45377C259.008 5.45377 259.426 5.65133 259.796 6.04838L259.983 5.99705L260.759 4.33233C260.341 3.99242 259.816 3.82198 259.187 3.82198C258.741 3.82198 258.285 3.95271 257.816 4.21225C257.372 4.4621 256.997 4.77781 256.689 5.16421C256.675 5.17583 256.662 5.18067 256.652 5.18067V4.06021L256.245 3.73676L253.67 4.17739L253.524 5.11288C254.213 5.04606 254.559 5.34434 254.559 6.01448V11.8405H257.781L258.003 10.8566C257.507 10.8566 257.176 10.8227 257.003 10.753C256.769 10.6523 256.652 10.4373 256.652 10.107V7.61045L256.503 6.37086C257.057 5.75882 257.737 5.45377 258.54 5.45377ZM264.22 1.69803C264.22 1.93626 264.126 2.15125 263.941 2.34397C263.745 2.52507 263.502 2.61513 263.221 2.61513C262.935 2.61513 262.696 2.52507 262.497 2.34397C262.301 2.16191 262.203 1.94789 262.203 1.69803C262.203 1.43656 262.301 1.21673 262.497 1.03466C262.696 0.854536 262.935 0.763504 263.221 0.763504C263.492 0.763504 263.725 0.854536 263.924 1.03466C264.119 1.21673 264.22 1.43656 264.22 1.69803ZM262.203 8.80044C262.203 9.90929 262.511 10.7586 263.128 11.3493L263.831 12.0108L265.403 10.9416L264.292 9.63135V4.04355L263.887 3.73559L261.313 4.17913L261.165 5.11172C261.857 5.02359 262.203 5.32284 262.203 6.01429V8.80044ZM272.955 6.98281C272.758 7.02833 272.567 7.04963 272.38 7.04963C271.962 7.04963 271.72 6.89759 271.659 6.59157C271.634 6.43371 271.61 6.27877 271.585 6.13254C271.549 5.99599 271.518 5.85557 271.492 5.70837C271.369 5.38007 271.036 5.20963 270.494 5.19801C269.814 5.17573 269.259 5.41397 268.829 5.9127C268.396 6.43371 268.181 7.10096 268.181 7.91734C268.181 8.77827 268.407 9.4581 268.865 9.9549C269.345 10.5001 269.998 10.7713 270.825 10.7713H272.27V11.7058C271.455 11.9101 270.815 12.0109 270.344 12.0109C269.11 12.0109 268.082 11.6429 267.256 10.9078C266.439 10.1583 266.033 9.19662 266.033 8.01805C266.033 6.78428 266.422 5.77616 267.2 4.99464C267.975 4.21312 269.007 3.82091 270.291 3.82091C270.955 3.82091 271.492 3.9071 271.9 4.07754C272.281 4.24702 272.632 4.52495 272.955 4.90845V6.98281ZM278.377 11.554C279.249 11.2344 279.892 11.0668 280.301 11.0436V6.37096C280.301 5.47614 279.991 4.80793 279.37 4.36633C278.808 3.9683 278.035 3.78818 277.046 3.82207L276.546 3.855C276.373 3.86759 276.206 3.88502 276.045 3.90729L275.139 4.04384C274.903 4.08749 274.729 4.12045 274.615 4.14187L274.601 4.14456V5.14591H276.082C276.933 5.14591 277.484 5.20982 277.731 5.33475C278.051 5.50325 278.212 5.88384 278.212 6.47168V6.64212C278.198 6.64212 277.952 6.70507 277.471 6.82999C277.013 6.9433 276.754 7.01109 276.695 7.03433C274.695 7.59989 273.696 8.51795 273.696 9.78465C273.696 10.4209 273.929 10.9516 274.4 11.3835C274.867 11.7912 275.422 11.9956 276.065 11.9956C276.78 11.9956 277.551 11.8474 278.377 11.554ZM278.212 7.4585C277.544 7.60473 276.97 7.8817 276.489 8.28941C276.022 8.68743 275.786 9.10579 275.786 9.54836C275.786 9.9793 275.886 10.3057 276.082 10.5342C276.28 10.7831 276.559 10.908 276.915 10.908C277.385 10.908 277.816 10.7318 278.212 10.3812V7.4585ZM36.2876 6.77896H32.0682V8.7158H36.2876V6.77896Z" fill="white"/>
</g>
<defs>
<filter id="filter0_d_3_2549" x="0.642456" y="0" width="283.659" height="22" filterUnits="userSpaceOnUse" color-interpolation-filters="sRGB">
<feFlood flood-opacity="0" result="BackgroundImageFix"/>
<feColorMatrix in="SourceAlpha" type="matrix" values="0 0 0 0 0 0 0 0 0 0 0 0 0 0 0 0 0 0 127 0" result="hardAlpha"/>
<feOffset dy="4"/>
<feGaussianBlur stdDeviation="2"/>
<feComposite in2="hardAlpha" operator="out"/>
<feColorMatrix type="matrix" values="0 0 0 0 0 0 0 0 0 0 0 0 0 0 0 0 0 0 0.25 0"/>
<feBlend mode="normal" in2="BackgroundImageFix" result="effect1_dropShadow_3_2549"/>
<feBlend mode="normal" in="SourceGraphic" in2="effect1_dropShadow_3_2549" result="shape"/>
</filter>
</defs>
</svg>
