<svg width="178" height="49" viewBox="0 0 178 49" fill="none" xmlns="http://www.w3.org/2000/svg">
<path d="M2.81658 46V38.176H7.71258V39.664H4.58058V41.236H7.24458V42.712H4.58058V44.512H7.83258V46H2.81658ZM11.3908 46V38.176H14.0788C14.6548 38.176 15.1748 38.256 15.6388 38.416C16.1108 38.568 16.4868 38.828 16.7668 39.196C17.0468 39.564 17.1868 40.064 17.1868 40.696C17.1868 41.304 17.0468 41.804 16.7668 42.196C16.4868 42.588 16.1148 42.88 15.6508 43.072C15.1868 43.256 14.6788 43.348 14.1268 43.348H13.1548V46H11.3908ZM13.1548 41.944H14.0188C14.9788 41.944 15.4588 41.528 15.4588 40.696C15.4588 40.288 15.3308 40 15.0748 39.832C14.8188 39.664 14.4508 39.58 13.9708 39.58H13.1548V41.944ZM20.5392 46V38.176H25.4712V39.664H22.3032V46H20.5392ZM29.9182 42.04L29.7262 42.76H31.3942L31.2142 42.04C31.1102 41.648 31.0022 41.232 30.8902 40.792C30.7862 40.352 30.6822 39.928 30.5782 39.52H30.5302C30.4342 39.936 30.3342 40.364 30.2302 40.804C30.1342 41.236 30.0302 41.648 29.9182 42.04ZM27.0862 46L29.5342 38.176H31.6582L34.1062 46H32.2342L31.7542 44.14H29.3662L28.8862 46H27.0862ZM43.1395 40.072C43.1395 40.216 43.1595 40.368 43.1995 40.528C43.2475 40.688 43.3115 40.848 43.3915 41.008C43.6715 40.84 43.9075 40.664 44.0995 40.48C44.2915 40.296 44.3875 40.072 44.3875 39.808C44.3875 39.624 44.3435 39.476 44.2555 39.364C44.1675 39.252 44.0315 39.196 43.8475 39.196C43.6475 39.196 43.4795 39.276 43.3435 39.436C43.2075 39.588 43.1395 39.8 43.1395 40.072ZM43.3435 46.144C42.7755 46.144 42.2955 46.044 41.9035 45.844C41.5195 45.636 41.2275 45.364 41.0275 45.028C40.8355 44.684 40.7395 44.312 40.7395 43.912C40.7395 43.368 40.8795 42.928 41.1595 42.592C41.4475 42.248 41.7835 41.952 42.1675 41.704C42.0155 41.424 41.8955 41.148 41.8075 40.876C41.7275 40.596 41.6875 40.332 41.6875 40.084C41.6875 39.708 41.7715 39.368 41.9395 39.064C42.1155 38.752 42.3635 38.504 42.6835 38.32C43.0035 38.128 43.3795 38.032 43.8115 38.032C44.4035 38.032 44.8715 38.192 45.2155 38.512C45.5595 38.832 45.7315 39.264 45.7315 39.808C45.7315 40.144 45.6515 40.448 45.4915 40.72C45.3315 40.984 45.1275 41.224 44.8795 41.44C44.6315 41.648 44.3715 41.844 44.0995 42.028C44.3235 42.284 44.5675 42.536 44.8315 42.784C45.1035 43.024 45.3835 43.248 45.6715 43.456C45.8715 43.2 46.0475 42.916 46.1995 42.604C46.3515 42.292 46.4755 41.952 46.5715 41.584H48.1795C48.0355 42.056 47.8555 42.512 47.6395 42.952C47.4315 43.392 47.1755 43.816 46.8715 44.224C47.1195 44.352 47.3555 44.46 47.5795 44.548C47.8115 44.628 48.0275 44.684 48.2275 44.716L47.8075 46.144C47.4875 46.08 47.1555 45.98 46.8115 45.844C46.4755 45.708 46.1395 45.544 45.8035 45.352C45.4755 45.6 45.1075 45.796 44.6995 45.94C44.2915 46.076 43.8395 46.144 43.3435 46.144ZM42.4075 43.804C42.4075 44.1 42.5155 44.34 42.7315 44.524C42.9475 44.708 43.2275 44.8 43.5715 44.8C43.8995 44.8 44.2275 44.696 44.5555 44.488C44.2595 44.24 43.9715 43.98 43.6915 43.708C43.4195 43.436 43.1675 43.156 42.9355 42.868C42.7835 43.004 42.6555 43.148 42.5515 43.3C42.4555 43.452 42.4075 43.62 42.4075 43.804ZM55.2537 46V44.932L57.6297 38.176H59.7417L62.1177 44.932V46H55.2537ZM57.1497 44.512H60.1737L59.3457 41.872L58.6737 39.532H58.6257L57.9657 41.872L57.1497 44.512ZM65.4455 46V38.176H68.1335C68.7095 38.176 69.2295 38.256 69.6935 38.416C70.1655 38.568 70.5415 38.828 70.8215 39.196C71.1015 39.564 71.2415 40.064 71.2415 40.696C71.2415 41.304 71.1015 41.804 70.8215 42.196C70.5415 42.588 70.1695 42.88 69.7055 43.072C69.2415 43.256 68.7335 43.348 68.1815 43.348H67.2095V46H65.4455ZM67.2095 41.944H68.0735C69.0335 41.944 69.5135 41.528 69.5135 40.696C69.5135 40.288 69.3855 40 69.1295 39.832C68.8735 39.664 68.5055 39.58 68.0255 39.58H67.2095V41.944ZM75.8323 42.04L75.6403 42.76H77.3083L77.1283 42.04C77.0243 41.648 76.9163 41.232 76.8043 40.792C76.7003 40.352 76.5963 39.928 76.4923 39.52H76.4443C76.3483 39.936 76.2483 40.364 76.1443 40.804C76.0483 41.236 75.9443 41.648 75.8323 42.04ZM73.0003 46L75.4483 38.176H77.5723L80.0203 46H78.1483L77.6683 44.14H75.2803L74.8003 46H73.0003ZM82.4072 46V44.932L84.8312 42.052L82.4432 39.244V38.176H87.8072V39.664H84.6512L86.5952 42.004L84.6152 44.512H88.1312V46H82.4072ZM92.5984 46V39.664H90.4504V38.176H96.5224V39.664H94.3744V46H92.5984ZM99.7424 46V38.176H101.506V41.188H104.206V38.176H105.982V46H104.206V42.736H101.506V46H99.7424ZM109.828 46V38.176H112.516C113.092 38.176 113.612 38.256 114.076 38.416C114.548 38.568 114.924 38.828 115.204 39.196C115.484 39.564 115.624 40.064 115.624 40.696C115.624 41.304 115.484 41.804 115.204 42.196C114.924 42.588 114.552 42.88 114.088 43.072C113.624 43.256 113.116 43.348 112.564 43.348H111.592V46H109.828ZM111.592 41.944H112.456C113.416 41.944 113.896 41.528 113.896 40.696C113.896 40.288 113.768 40 113.512 39.832C113.256 39.664 112.888 39.58 112.408 39.58H111.592V41.944ZM118.977 46V38.176H120.741V46H118.977ZM127.766 46.144C127.062 46.144 126.442 45.98 125.906 45.652C125.378 45.324 124.962 44.856 124.658 44.248C124.362 43.632 124.214 42.9 124.214 42.052C124.214 41.196 124.362 40.472 124.658 39.88C124.962 39.28 125.378 38.824 125.906 38.512C126.442 38.192 127.062 38.032 127.766 38.032C128.47 38.032 129.086 38.192 129.614 38.512C130.15 38.824 130.566 39.28 130.862 39.88C131.166 40.48 131.318 41.204 131.318 42.052C131.318 42.9 131.166 43.632 130.862 44.248C130.566 44.856 130.15 45.324 129.614 45.652C129.086 45.98 128.47 46.144 127.766 46.144ZM127.766 44.62C128.302 44.62 128.726 44.388 129.038 43.924C129.35 43.46 129.506 42.836 129.506 42.052C129.506 41.268 129.35 40.656 129.038 40.216C128.726 39.776 128.302 39.556 127.766 39.556C127.23 39.556 126.806 39.776 126.494 40.216C126.182 40.656 126.026 41.268 126.026 42.052C126.026 42.836 126.182 43.46 126.494 43.924C126.806 44.388 127.23 44.62 127.766 44.62ZM135.973 46V39.664H133.825V38.176H139.897V39.664H137.749V46H135.973ZM143.117 46V38.176H144.881V41.188H147.581V38.176H149.357V46H147.581V42.736H144.881V46H143.117ZM154.727 46V39.664H152.579V38.176H158.651V39.664H156.503V46H154.727ZM161.871 46V38.176H166.767V39.664H163.635V41.236H166.299V42.712H163.635V44.512H166.887V46H161.871ZM169.977 46V44.932L172.401 42.052L170.013 39.244V38.176H175.377V39.664H172.221L174.165 42.004L172.185 44.512H175.701V46H169.977Z" fill="white"/>
<path fill-rule="evenodd" clip-rule="evenodd" d="M90.2214 0.000107481V8.7293H96.5107V4.48616H94.4535V6.60773H92.2786V2.12168H98.9428V10.9392H79.0572V2.12168H85.7215V6.60773H83.5465V4.48616H81.4893V8.7293H87.7786V0.000107481H77V10.9392V13.0608V24H87.7786V15.2708H81.4893V19.5137H83.5465V17.3922H85.7215V21.8784H79.0572V13.0608H98.9428V21.8784H92.2786V17.3922H94.4535V19.5137H96.5107V15.2708H90.2214V24H101V0.000107481H90.2214Z" fill="white"/>
<mask id="mask0_0_94" style="mask-type:luminance" maskUnits="userSpaceOnUse" x="77" y="0" width="24" height="24">
<path fill-rule="evenodd" clip-rule="evenodd" d="M90.2214 0.000107481V8.7293H96.5107V4.48616H94.4535V6.60773H92.2786V2.12168H98.9428V10.9392H79.0572V2.12168H85.7215V6.60773H83.5465V4.48616H81.4893V8.7293H87.7786V0.000107481H77V10.9392V13.0608V24H87.7786V15.2708H81.4893V19.5137H83.5465V17.3922H85.7215V21.8784H79.0572V13.0608H98.9428V21.8784H92.2786V17.3922H94.4535V19.5137H96.5107V15.2708H90.2214V24H101V0.000107481H90.2214Z" fill="white"/>
</mask>
<g mask="url(#mask0_0_94)">
<rect x="77" width="24" height="24" fill="white"/>
</g>
</svg>
