<svg width="101" height="56" viewBox="0 0 101 56" fill="none" xmlns="http://www.w3.org/2000/svg">
<g clip-path="url(#clip0_0_48)">
<path d="M0.440808 42.2853L0.531407 34.4619L2.29529 34.4825L2.25818 37.6863L2.30618 37.6869L4.67112 34.5104L6.61499 34.5332L4.21502 37.6253L6.95636 42.3617L5.02449 42.3391L3.15484 39.0169L2.229 40.2062L2.20469 42.306L0.440808 42.2853ZM11.5758 38.4557L11.3755 39.1734L13.0434 39.1929L12.8717 38.4709C12.7723 38.0777 12.6691 37.6604 12.5622 37.2191C12.4633 36.7779 12.3642 36.3528 12.2649 35.9436L12.2169 35.943C12.1161 36.3578 12.0112 36.7846 11.9021 37.2234C11.8011 37.6542 11.6923 38.065 11.5758 38.4557ZM8.69815 42.3822L11.2366 34.5874L13.3604 34.6123L15.7177 42.4645L13.8458 42.4426L13.3874 40.577L10.9995 40.549L10.498 42.4033L8.69815 42.3822ZM17.5644 42.4862L20.0069 34.6903L22.1307 34.7152L24.404 42.5664L22.5321 42.5444L21.6384 38.8857C21.5233 38.4603 21.4201 38.0431 21.3289 37.634C21.2456 37.225 21.1505 36.8038 21.0435 36.3705L20.9955 36.37C20.8705 36.8005 20.7576 37.2193 20.6569 37.6261C20.5562 38.0329 20.4474 38.4477 20.3305 38.8704L19.3643 42.5073L17.5644 42.4862ZM26.8438 42.595L26.8603 41.1671L28.1802 41.1826L28.1808 41.1346C28.0148 40.9566 27.8454 40.7306 27.6726 40.4566C27.4998 40.1745 27.3556 39.8528 27.2397 39.4914C27.1319 39.1301 27.0805 38.7335 27.0855 38.3015C27.0939 37.5736 27.2493 36.9394 27.5516 36.3989C27.8539 35.8504 28.2709 35.4232 28.8025 35.1175C29.3421 34.8118 29.9678 34.6631 30.6798 34.6714C31.3917 34.6798 32.0099 34.8431 32.5342 35.1612C33.0666 35.4795 33.4776 35.9163 33.7671 36.4718C34.0568 37.0192 34.1974 37.6569 34.189 38.3849C34.184 38.8168 34.1194 39.2121 33.9953 39.5707C33.8711 39.9292 33.7194 40.2475 33.5402 40.5254C33.369 40.7954 33.1945 41.0174 33.0164 41.1913L33.0159 41.2393L34.3358 41.2548L34.3193 42.6827L31.1155 42.6451L31.1302 41.3732C31.5345 41.0019 31.8393 40.5894 32.0446 40.1358C32.2579 39.6823 32.368 39.1516 32.3751 38.5436C32.3829 37.8636 32.2334 37.3058 31.9264 36.8702C31.6275 36.4267 31.2061 36.2017 30.6621 36.1953C30.1182 36.189 29.6877 36.4039 29.3706 36.8402C29.0616 37.2686 28.9032 37.8228 28.8953 38.5028C28.8883 39.1107 28.9821 39.6439 29.1768 40.1022C29.3715 40.5605 29.6667 40.98 30.0623 41.3607L30.0476 42.6326L26.8438 42.595ZM37.3023 42.7177L37.3147 41.6497L39.7719 38.7984L37.4165 35.9625L37.4289 34.8946L42.7925 34.9575L42.7753 36.4454L39.6195 36.4084L41.5363 38.771L39.5274 41.2557L43.0431 41.2969L43.0259 42.7848L37.3023 42.7177ZM50.7577 42.8755L50.8483 35.052L52.6121 35.0727L52.5773 38.0845L55.2771 38.1162L55.3119 35.1044L57.0878 35.1252L56.9972 42.9487L55.2213 42.9278L55.2591 39.6641L52.5593 39.6324L52.5215 42.8962L50.7577 42.8755ZM59.835 42.9819L62.2774 35.1861L64.4013 35.211L66.6745 43.0622L64.8026 43.0402L63.9089 39.3815C63.7938 38.9561 63.6907 38.5389 63.5994 38.1298C63.5161 37.7208 63.421 37.2996 63.314 36.8663L63.266 36.8658C63.141 37.2963 63.0282 37.715 62.9275 38.1219C62.8267 38.5287 62.7179 38.9435 62.601 39.3661L61.6348 43.0031L59.835 42.9819ZM71.4347 39.8538L71.4527 38.3059L73.8045 38.3335L73.7866 39.8814L71.4347 39.8538ZM72.5712 43.2753C71.8673 43.2671 71.2492 43.0958 70.717 42.7616C70.1929 42.4274 69.7823 41.9545 69.4854 41.343C69.1965 40.7236 69.057 39.9899 69.0668 39.142C69.0767 38.286 69.2331 37.5638 69.536 36.9753C69.8469 36.3789 70.2681 35.9278 70.7997 35.622C71.3394 35.3083 71.9612 35.1556 72.6651 35.1639C73.3691 35.1721 73.9832 35.3393 74.5075 35.6655C75.0398 35.9838 75.4505 36.4446 75.7395 37.0481C76.0366 37.6516 76.1802 38.3773 76.1703 39.2253C76.1605 40.0732 76.0001 40.8034 75.6889 41.4158C75.3859 42.0203 74.9645 42.4833 74.4248 42.805C73.893 43.1268 73.2752 43.2836 72.5712 43.2753ZM72.5888 41.7514C73.1248 41.7577 73.5515 41.5307 73.8688 41.0704C74.1862 40.6101 74.3494 39.988 74.3585 39.204C74.3675 38.4201 74.2186 37.8063 73.9118 37.3626C73.6049 36.919 73.1835 36.6941 72.6475 36.6878C72.1115 36.6815 71.685 36.8965 71.3679 37.3328C71.0509 37.7691 70.8878 38.3793 70.8787 39.1632C70.8696 39.9471 71.0184 40.5729 71.325 41.0406C71.6316 41.5082 72.0529 41.7451 72.5888 41.7514ZM81.3601 39.2741L81.1597 39.9918L82.8276 40.0114L82.656 39.2893C82.5565 38.8961 82.4533 38.4789 82.3464 38.0376C82.2475 37.5964 82.1485 37.1712 82.0492 36.762L82.0012 36.7615C81.9004 37.1763 81.7954 37.6031 81.6864 38.0419C81.5854 38.4727 81.4766 38.8835 81.3601 39.2741ZM78.4824 43.2007L81.0208 35.4059L83.1447 35.4308L85.5019 43.283L83.63 43.261L83.1716 41.3955L80.7838 41.3675L80.2823 43.2218L78.4824 43.2007ZM89.0017 43.324L89.075 36.9885L86.9272 36.9633L86.9444 35.4754L93.016 35.5466L92.9988 37.0345L90.8509 37.0093L90.7776 43.3449L89.0017 43.324ZM96.1452 43.4078L96.2358 35.5843L101.131 35.6418L101.114 37.1297L97.9824 37.0929L97.9642 38.6648L100.628 38.6961L100.611 40.172L97.9471 40.1407L97.9263 41.9406L101.178 41.9787L101.161 43.4666L96.1452 43.4078Z" fill="white"/>
<path fill-rule="evenodd" clip-rule="evenodd" d="M51.2074 0.000122836V9.97634H57.3746V5.12703H55.3574V7.55169H53.2247V2.42477H59.7595V12.502H40.26V2.42477H46.7949V7.55169H44.6621V5.12703H42.6449V9.97634H48.812V0.000122836H38.2427V12.502V14.9266V27.4286H48.812V17.4524H42.6449V22.3014H44.6621V19.8768H46.7949V25.0039H40.26V14.9266H59.7595V25.0039H53.2247V19.8768H55.3574V22.3014H57.3746V17.4524H51.2074V27.4286H61.7767V0.000122836H51.2074Z" fill="white"/>
<mask id="mask0_0_48" style="mask-type:luminance" maskUnits="userSpaceOnUse" x="38" y="0" width="24" height="28">
<path fill-rule="evenodd" clip-rule="evenodd" d="M51.2074 0.000122836V9.97634H57.3746V5.12703H55.3574V7.55169H53.2247V2.42477H59.7595V12.502H40.26V2.42477H46.7949V7.55169H44.6621V5.12703H42.6449V9.97634H48.812V0.000122836H38.2427V12.502V14.9266V27.4286H48.812V17.4524H42.6449V22.3014H44.6621V19.8768H46.7949V25.0039H40.26V14.9266H59.7595V25.0039H53.2247V19.8768H55.3574V22.3014H57.3746V17.4524H51.2074V27.4286H61.7767V0.000122836H51.2074Z" fill="white"/>
</mask>
<g mask="url(#mask0_0_48)">
<rect x="38.2427" width="23.534" height="27.4286" fill="white"/>
</g>
</g>
<defs>
<clipPath id="clip0_0_48">
<rect width="101" height="56" fill="white"/>
</clipPath>
</defs>
</svg>

