<svg width="16" height="16" viewBox="0 0 16 16" fill="none" xmlns="http://www.w3.org/2000/svg">
<path fill-rule="evenodd" clip-rule="evenodd" d="M11.8508 8.90419C12.3866 9.1051 12.9893 9.23905 13.5921 9.30602C14.5966 9.43996 15.3333 10.3106 15.3333 11.3151V13.3243C15.3333 13.8601 15.0654 14.3288 14.7306 14.7307C14.3957 15.1325 13.86 15.3334 13.3242 15.3334H13.1233C10.9802 15.1325 8.83713 14.3958 7.02891 13.1903C5.35463 12.1188 3.88127 10.6454 2.80973 8.97116C1.67122 7.16294 0.86757 5.01987 0.666656 2.87679C0.666656 2.34102 0.800599 1.80526 1.13545 1.40343C1.47031 1.0016 1.93911 0.733719 2.47488 0.666748H2.67579H4.68492C5.68949 0.666748 6.56011 1.40343 6.69405 2.408C6.76102 3.01074 6.89497 3.61348 7.09588 4.14924C7.36376 4.88593 7.16285 5.75655 6.62708 6.29232L6.15828 6.76112C6.96194 8.03357 8.03347 9.03813 9.23895 9.84179L9.70775 9.37299C10.3105 8.83722 11.1141 8.63631 11.8508 8.90419ZM13.9939 13.3243V11.3152C13.9939 10.9803 13.726 10.7124 13.4581 10.6454C12.7884 10.5115 12.1187 10.3776 11.449 10.1097C11.1811 9.97573 10.9132 10.0427 10.7123 10.2436L9.84169 11.1142C9.64078 11.3821 9.30593 11.3821 9.03804 11.2482C7.22982 10.2436 5.75646 8.77025 4.75189 6.96203C4.61795 6.69415 4.68492 6.35929 4.88583 6.15838L5.75646 5.35472C5.8904 5.15381 5.95737 4.88593 5.8904 4.61804C5.62252 4.0153 5.4216 3.27862 5.35463 2.60891C5.28766 2.27405 5.01978 2.00617 4.68492 2.00617H2.67579C2.47488 2.00617 2.27396 2.14011 2.14002 2.27405C2.07305 2.408 2.00608 2.54194 2.00608 2.74285C2.20699 4.68501 2.8767 6.5602 3.94824 8.23448C4.95281 9.77481 6.22526 11.1142 7.76559 12.0518C9.43987 13.1234 11.3151 13.7931 13.2572 13.994C13.5251 13.994 13.659 13.927 13.793 13.7931C13.9269 13.6591 13.9939 13.5252 13.9939 13.3243Z" fill="black"/>
<mask id="mask0_9_2857" style="mask-type:luminance" maskUnits="userSpaceOnUse" x="0" y="0" width="16" height="16">
<path fill-rule="evenodd" clip-rule="evenodd" d="M11.8508 8.90419C12.3866 9.1051 12.9893 9.23905 13.5921 9.30602C14.5966 9.43996 15.3333 10.3106 15.3333 11.3151V13.3243C15.3333 13.8601 15.0654 14.3288 14.7306 14.7307C14.3957 15.1325 13.86 15.3334 13.3242 15.3334H13.1233C10.9802 15.1325 8.83713 14.3958 7.02891 13.1903C5.35463 12.1188 3.88127 10.6454 2.80973 8.97116C1.67122 7.16294 0.86757 5.01987 0.666656 2.87679C0.666656 2.34102 0.800599 1.80526 1.13545 1.40343C1.47031 1.0016 1.93911 0.733719 2.47488 0.666748H2.67579H4.68492C5.68949 0.666748 6.56011 1.40343 6.69405 2.408C6.76102 3.01074 6.89497 3.61348 7.09588 4.14924C7.36376 4.88593 7.16285 5.75655 6.62708 6.29232L6.15828 6.76112C6.96194 8.03357 8.03347 9.03813 9.23895 9.84179L9.70775 9.37299C10.3105 8.83722 11.1141 8.63631 11.8508 8.90419ZM13.9939 13.3243V11.3152C13.9939 10.9803 13.726 10.7124 13.4581 10.6454C12.7884 10.5115 12.1187 10.3776 11.449 10.1097C11.1811 9.97573 10.9132 10.0427 10.7123 10.2436L9.84169 11.1142C9.64078 11.3821 9.30593 11.3821 9.03804 11.2482C7.22982 10.2436 5.75646 8.77025 4.75189 6.96203C4.61795 6.69415 4.68492 6.35929 4.88583 6.15838L5.75646 5.35472C5.8904 5.15381 5.95737 4.88593 5.8904 4.61804C5.62252 4.0153 5.4216 3.27862 5.35463 2.60891C5.28766 2.27405 5.01978 2.00617 4.68492 2.00617H2.67579C2.47488 2.00617 2.27396 2.14011 2.14002 2.27405C2.07305 2.408 2.00608 2.54194 2.00608 2.74285C2.20699 4.68501 2.8767 6.5602 3.94824 8.23448C4.95281 9.77481 6.22526 11.1142 7.76559 12.0518C9.43987 13.1234 11.3151 13.7931 13.2572 13.994C13.5251 13.994 13.659 13.927 13.793 13.7931C13.9269 13.6591 13.9939 13.5252 13.9939 13.3243Z" fill="white"/>
</mask>
<g mask="url(#mask0_9_2857)">
<path fill-rule="evenodd" clip-rule="evenodd" d="M0 0H16V16H0V0Z" fill="#666666"/>
</g>
</svg>
